# xmcd
#
# Track frame offsets: 
#        150
#        20397
#        41196
#        60294
#        71071
#
# Disc length: 1135 seconds
#
# Revision: 0
# Processed by: cddbd v1.5.2PL0 Copyright (c) Steve Scherf et al.
# Submitted via: ExactAudioCopy v0.99pb4
#
DISCID=3d046d05
DTITLE=Scala and Kolacny Brothers - Paper Plane CD2
DYEAR=2008
DGENRE=Chorus
TTITLE0=Tous les rêves sont en nous
TTITLE1=Un Dimanche en Automne
TTITLE2=Comme un Brasero
TTITLE3=Seashell
TTITLE4=Heartbeats
EXTD=
EXTT0=
EXTT1=
EXTT2=
EXTT3=
EXTT4=
PLAYORDER=
